<svg xmlns="http://www.w3.org/2000/svg" width="28" height="17" viewBox="0 0 28 17" fill="none">
<g stroke="#9c8f66" stroke-width=".95" stroke-linecap="round" fill="none">
<path d="M 13.5 13 C 9 12 5 8 5.4 2.2"/>
<path d="M 14.5 13 C 19 12 23 8 22.6 2.2"/>
<path d="M 14 13 C 11.6 14.3 9.6 15.0 7.4 15.2"/>
<path d="M 14 13 C 16.4 14.3 18.4 15.0 20.6 15.2"/>
</g>
<g fill="#b7a97f" stroke="#9c8f66" stroke-width=".55" stroke-linejoin="round">
<path d="M 8.38 10.24 Q 10.77 7.82 9.63 4.17 Q 7.14 7.08 8.38 10.24 Z"/>
<path d="M 5.48 4.53 Q 8.41 4.11 9.56 0.99 Q 6.31 1.69 5.48 4.53 Z"/>
<path d="M 5.4 2.2 Q 7.05 0.01 5.74 -2.79 Q 4.06 -0.2 5.4 2.2 Z"/>
<path d="M 19.62 10.24 Q 20.86 7.08 18.37 4.17 Q 17.23 7.82 19.62 10.24 Z"/>
<path d="M 22.52 4.53 Q 21.69 1.69 18.44 0.99 Q 19.59 4.11 22.52 4.53 Z"/>
<path d="M 22.6 2.2 Q 23.94 -0.2 22.26 -2.79 Q 20.95 0.01 22.6 2.2 Z"/>
</g>
</svg>